<svg width="95" height="68" viewBox="0 0 95 68" fill="none" xmlns="http://www.w3.org/2000/svg">
<path d="M46.6741 47.384L47.1541 42.936H46.9621L45.5861 46.52L40.8181 54.872H39.4101L34.3861 46.488L32.9781 42.936H32.8181L33.4581 47.352V59H29.2981V36.6H33.2981L39.2821 46.84L40.3381 49.4H40.4661L41.4261 46.776L47.0901 36.6H51.0581V59H46.6741V47.384ZM65.9959 57.624C65.3559 58.136 64.4812 58.5733 63.3719 58.936C62.2839 59.2773 61.1212 59.448 59.8839 59.448C57.3025 59.448 55.4145 58.7013 54.2199 57.208C53.0252 55.6933 52.4279 53.624 52.4279 51C52.4279 48.184 53.0999 46.072 54.4439 44.664C55.7879 43.256 57.6759 42.552 60.1079 42.552C60.9185 42.552 61.7079 42.6587 62.4759 42.872C63.2439 43.0853 63.9265 43.4373 64.5239 43.928C65.1212 44.4187 65.6012 45.08 65.9639 45.912C66.3265 46.744 66.5079 47.7787 66.5079 49.016C66.5079 49.464 66.4759 49.944 66.4119 50.456C66.3692 50.968 66.2945 51.5013 66.1879 52.056H56.5879C56.6519 53.4 56.9932 54.4133 57.6119 55.096C58.2519 55.7787 59.2759 56.12 60.6839 56.12C61.5585 56.12 62.3372 55.992 63.0199 55.736C63.7239 55.4587 64.2572 55.1813 64.6199 54.904L65.9959 57.624ZM60.0439 45.88C58.9559 45.88 58.1452 46.2107 57.6119 46.872C57.0999 47.512 56.7905 48.376 56.6839 49.464H62.6359C62.7212 48.312 62.5399 47.4267 62.0919 46.808C61.6652 46.1893 60.9825 45.88 60.0439 45.88Z" fill="#46C8FF"/>
<path d="M1.92 9.824C2.41067 9.73867 2.93333 9.664 3.488 9.6C4.064 9.51466 4.62933 9.45067 5.184 9.408C5.76 9.36533 6.31467 9.33333 6.848 9.312C7.38133 9.29067 7.872 9.28 8.32 9.28C9.36533 9.28 10.3893 9.376 11.392 9.568C12.416 9.76 13.3227 10.0907 14.112 10.56C14.9227 11.0293 15.5627 11.68 16.032 12.512C16.5227 13.3227 16.768 14.3467 16.768 15.584C16.768 17.4187 16.3413 18.912 15.488 20.064C14.6347 21.216 13.4933 22.016 12.064 22.464L13.632 23.456L18.752 32H13.696L8.608 23.232L6.304 22.816V32H1.92V9.824ZM8.64 13.184C8.192 13.184 7.744 13.1947 7.296 13.216C6.86933 13.2373 6.53867 13.28 6.304 13.344V19.84H8.16C9.376 19.84 10.3467 19.5627 11.072 19.008C11.7973 18.4533 12.16 17.536 12.16 16.256C12.16 15.296 11.8613 14.5493 11.264 14.016C10.6667 13.4613 9.792 13.184 8.64 13.184ZM30.7428 30.624C30.1028 31.136 29.2281 31.5733 28.1188 31.936C27.0307 32.2773 25.8681 32.448 24.6307 32.448C22.0494 32.448 20.1614 31.7013 18.9667 30.208C17.7721 28.6933 17.1747 26.624 17.1747 24C17.1747 21.184 17.8467 19.072 19.1907 17.664C20.5347 16.256 22.4227 15.552 24.8547 15.552C25.6654 15.552 26.4548 15.6587 27.2227 15.872C27.9907 16.0853 28.6734 16.4373 29.2708 16.928C29.8681 17.4187 30.3481 18.08 30.7108 18.912C31.0734 19.744 31.2548 20.7787 31.2548 22.016C31.2548 22.464 31.2228 22.944 31.1588 23.456C31.1161 23.968 31.0414 24.5013 30.9348 25.056H21.3347C21.3987 26.4 21.7401 27.4133 22.3587 28.096C22.9987 28.7787 24.0227 29.12 25.4307 29.12C26.3054 29.12 27.0841 28.992 27.7668 28.736C28.4708 28.4587 29.0041 28.1813 29.3668 27.904L30.7428 30.624ZM24.7908 18.88C23.7028 18.88 22.8921 19.2107 22.3587 19.872C21.8467 20.512 21.5374 21.376 21.4307 22.464H27.3828C27.4681 21.312 27.2867 20.4267 26.8387 19.808C26.4121 19.1893 25.7294 18.88 24.7908 18.88ZM41.6807 32V23.296C41.6807 21.824 41.5421 20.7787 41.2647 20.16C40.9874 19.5413 40.4114 19.232 39.5367 19.232C38.8114 19.232 38.2247 19.4347 37.7767 19.84C37.3287 20.224 36.9874 20.7253 36.7527 21.344V32H32.5927V16H35.8247L36.3047 18.112H36.4327C36.9234 17.4293 37.5421 16.832 38.2887 16.32C39.0567 15.808 40.0381 15.552 41.2327 15.552C42.2568 15.552 43.0888 15.7653 43.7288 16.192C44.3901 16.5973 44.9021 17.2907 45.2647 18.272C45.7554 17.44 46.3847 16.7787 47.1528 16.288C47.9208 15.7973 48.8488 15.552 49.9368 15.552C50.8328 15.552 51.5901 15.6587 52.2087 15.872C52.8488 16.0853 53.3608 16.4587 53.7448 16.992C54.1501 17.504 54.4488 18.1973 54.6408 19.072C54.8328 19.9467 54.9288 21.056 54.9288 22.4V32H50.7687V23.008C50.7687 21.7493 50.6301 20.8107 50.3528 20.192C50.0968 19.552 49.5101 19.232 48.5928 19.232C47.8461 19.232 47.2488 19.4347 46.8008 19.84C46.3741 20.2453 46.0541 20.8 45.8407 21.504V32H41.6807ZM57.0948 16H61.2548V32H57.0948V16ZM56.4868 11.488C56.4868 10.8693 56.7108 10.3467 57.1588 9.92C57.6281 9.472 58.2681 9.248 59.0788 9.248C59.8894 9.248 60.5401 9.472 61.0308 9.92C61.5428 10.3467 61.7988 10.8693 61.7988 11.488C61.7988 12.1067 61.5428 12.6293 61.0308 13.056C60.5401 13.4613 59.8894 13.664 59.0788 13.664C58.2681 13.664 57.6281 13.4613 57.1588 13.056C56.7108 12.6293 56.4868 12.1067 56.4868 11.488ZM73.5285 32V22.912C73.5285 21.6107 73.3365 20.672 72.9525 20.096C72.5898 19.52 71.9605 19.232 71.0645 19.232C70.2752 19.232 69.6032 19.4667 69.0485 19.936C68.5152 20.384 68.1312 20.9493 67.8965 21.632V32H63.7365V16H67.0325L67.5125 18.112H67.6405C68.1312 17.4293 68.7818 16.832 69.5925 16.32C70.4032 15.808 71.4485 15.552 72.7285 15.552C73.5178 15.552 74.2218 15.6587 74.8405 15.872C75.4592 16.0853 75.9818 16.4373 76.4085 16.928C76.8352 17.4187 77.1552 18.0907 77.3685 18.944C77.5818 19.776 77.6885 20.8107 77.6885 22.048V32H73.5285ZM93.174 26.368C93.174 27.264 93.1847 28.16 93.206 29.056C93.2273 29.952 93.3233 30.944 93.494 32.032H90.518L89.942 29.952H89.814C89.3873 30.6987 88.7687 31.3067 87.958 31.776C87.1687 32.224 86.23 32.448 85.142 32.448C83.1367 32.448 81.5793 31.7867 80.47 30.464C79.3607 29.1413 78.806 27.072 78.806 24.256C78.806 21.5253 79.4247 19.4027 80.662 17.888C81.8993 16.3733 83.7127 15.616 86.102 15.616C86.7633 15.616 87.3073 15.6587 87.734 15.744C88.1607 15.808 88.5873 15.9253 89.014 16.096V9.6H93.174V26.368ZM86.102 28.928C86.9127 28.928 87.5527 28.736 88.022 28.352C88.4913 27.9467 88.822 27.3707 89.014 26.624V19.84C88.7153 19.6053 88.3847 19.4347 88.022 19.328C87.6593 19.2 87.19 19.136 86.614 19.136C85.4407 19.136 84.5553 19.5307 83.958 20.32C83.382 21.1093 83.094 22.464 83.094 24.384C83.094 25.7493 83.3287 26.848 83.798 27.68C84.2887 28.512 85.0567 28.928 86.102 28.928Z" fill="#46C8FF"/>
</svg>
