<svg width="114" height="19" viewBox="0 0 114 19" fill="none" xmlns="http://www.w3.org/2000/svg">
<path d="M0.588438 1.368C0.956438 1.304 1.34844 1.248 1.76444 1.2C2.19644 1.136 2.62044 1.088 3.03644 1.056C3.46844 1.024 3.88444 1 4.28444 0.983999C4.68444 0.967999 5.05244 0.959999 5.38844 0.959999C6.17244 0.959999 6.94044 1.032 7.69244 1.176C8.46044 1.32 9.14044 1.568 9.73244 1.92C10.3404 2.272 10.8204 2.76 11.1724 3.384C11.5404 3.992 11.7244 4.76 11.7244 5.688C11.7244 7.064 11.4044 8.184 10.7644 9.048C10.1244 9.912 9.26844 10.512 8.19644 10.848L9.37244 11.592L13.2124 18H9.42044L5.60444 11.424L3.87644 11.112V18H0.588438V1.368ZM5.62844 3.888C5.29244 3.888 4.95644 3.896 4.62044 3.912C4.30044 3.928 4.05244 3.96 3.87644 4.008V8.88H5.26844C6.18044 8.88 6.90844 8.672 7.45244 8.256C7.99644 7.84 8.26844 7.152 8.26844 6.192C8.26844 5.472 8.04444 4.912 7.59644 4.512C7.14844 4.096 6.49244 3.888 5.62844 3.888ZM23.4055 16.968C22.9255 17.352 22.2695 17.68 21.4375 17.952C20.6215 18.208 19.7495 18.336 18.8215 18.336C16.8855 18.336 15.4695 17.776 14.5735 16.656C13.6775 15.52 13.2295 13.968 13.2295 12C13.2295 9.888 13.7335 8.304 14.7415 7.248C15.7495 6.192 17.1655 5.664 18.9895 5.664C19.5975 5.664 20.1895 5.744 20.7655 5.904C21.3415 6.064 21.8535 6.328 22.3015 6.696C22.7495 7.064 23.1095 7.56 23.3815 8.184C23.6535 8.808 23.7895 9.584 23.7895 10.512C23.7895 10.848 23.7655 11.208 23.7175 11.592C23.6855 11.976 23.6295 12.376 23.5495 12.792H16.3495C16.3975 13.8 16.6535 14.56 17.1175 15.072C17.5975 15.584 18.3655 15.84 19.4215 15.84C20.0775 15.84 20.6615 15.744 21.1735 15.552C21.7015 15.344 22.1015 15.136 22.3735 14.928L23.4055 16.968ZM18.9415 8.16C18.1255 8.16 17.5175 8.408 17.1175 8.904C16.7335 9.384 16.5015 10.032 16.4215 10.848H20.8855C20.9495 9.984 20.8135 9.32 20.4775 8.856C20.1575 8.392 19.6455 8.16 18.9415 8.16ZM32.809 18V11.472C32.809 10.368 32.705 9.584 32.497 9.12C32.289 8.656 31.857 8.424 31.201 8.424C30.657 8.424 30.217 8.576 29.881 8.88C29.545 9.168 29.289 9.544 29.113 10.008V18H25.993V6H28.417L28.777 7.584H28.873C29.241 7.072 29.705 6.624 30.265 6.24C30.841 5.856 31.577 5.664 32.473 5.664C33.241 5.664 33.865 5.824 34.345 6.144C34.841 6.448 35.225 6.968 35.497 7.704C35.865 7.08 36.337 6.584 36.913 6.216C37.489 5.848 38.185 5.664 39.001 5.664C39.673 5.664 40.241 5.744 40.705 5.904C41.185 6.064 41.569 6.344 41.857 6.744C42.161 7.128 42.385 7.648 42.529 8.304C42.673 8.96 42.745 9.792 42.745 10.8V18H39.625V11.256C39.625 10.312 39.521 9.608 39.313 9.144C39.121 8.664 38.681 8.424 37.993 8.424C37.433 8.424 36.985 8.576 36.649 8.88C36.329 9.184 36.089 9.6 35.929 10.128V18H32.809ZM45.5695 6H48.6895V18H45.5695V6ZM45.1135 2.616C45.1135 2.152 45.2815 1.76 45.6175 1.44C45.9695 1.104 46.4495 0.935999 47.0575 0.935999C47.6655 0.935999 48.1535 1.104 48.5215 1.44C48.9055 1.76 49.0975 2.152 49.0975 2.616C49.0975 3.08 48.9055 3.472 48.5215 3.792C48.1535 4.096 47.6655 4.248 47.0575 4.248C46.4495 4.248 45.9695 4.096 45.6175 3.792C45.2815 3.472 45.1135 3.08 45.1135 2.616ZM59.0948 18V11.184C59.0948 10.208 58.9508 9.504 58.6628 9.072C58.3908 8.64 57.9188 8.424 57.2468 8.424C56.6548 8.424 56.1508 8.6 55.7348 8.952C55.3348 9.288 55.0468 9.712 54.8708 10.224V18H51.7508V6H54.2228L54.5828 7.584H54.6788C55.0468 7.072 55.5348 6.624 56.1428 6.24C56.7508 5.856 57.5348 5.664 58.4948 5.664C59.0868 5.664 59.6148 5.744 60.0788 5.904C60.5428 6.064 60.9348 6.328 61.2548 6.696C61.5748 7.064 61.8148 7.568 61.9748 8.208C62.1348 8.832 62.2148 9.608 62.2148 10.536V18H59.0948ZM75.0289 13.776C75.0289 14.448 75.0369 15.12 75.0529 15.792C75.0689 16.464 75.1409 17.208 75.2689 18.024H73.0369L72.6049 16.464H72.5089C72.1889 17.024 71.7249 17.48 71.1169 17.832C70.5249 18.168 69.8209 18.336 69.0049 18.336C67.5009 18.336 66.3329 17.84 65.5009 16.848C64.6689 15.856 64.2529 14.304 64.2529 12.192C64.2529 10.144 64.7169 8.552 65.6449 7.416C66.5729 6.28 67.9329 5.712 69.7249 5.712C70.2209 5.712 70.6289 5.744 70.9489 5.808C71.2689 5.856 71.5889 5.944 71.9089 6.072V1.2H75.0289V13.776ZM69.7249 15.696C70.3329 15.696 70.8129 15.552 71.1649 15.264C71.5169 14.96 71.7649 14.528 71.9089 13.968V8.88C71.6849 8.704 71.4369 8.576 71.1649 8.496C70.8929 8.4 70.5409 8.352 70.1089 8.352C69.2289 8.352 68.5649 8.648 68.1169 9.24C67.6849 9.832 67.4689 10.848 67.4689 12.288C67.4689 13.312 67.6449 14.136 67.9969 14.76C68.3649 15.384 68.9409 15.696 69.7249 15.696ZM96.9408 9.288L97.3008 5.952H97.1568L96.1248 8.64L92.5488 14.904H91.4928L87.7248 8.616L86.6688 5.952H86.5488L87.0288 9.264V18H83.9088V1.2H86.9088L91.3968 8.88L92.1888 10.8H92.2848L93.0048 8.832L97.2528 1.2H100.229V18H96.9408V9.288ZM112.632 16.968C112.152 17.352 111.496 17.68 110.664 17.952C109.848 18.208 108.976 18.336 108.048 18.336C106.112 18.336 104.696 17.776 103.8 16.656C102.904 15.52 102.456 13.968 102.456 12C102.456 9.888 102.96 8.304 103.968 7.248C104.976 6.192 106.392 5.664 108.216 5.664C108.824 5.664 109.416 5.744 109.992 5.904C110.568 6.064 111.08 6.328 111.528 6.696C111.976 7.064 112.336 7.56 112.608 8.184C112.88 8.808 113.016 9.584 113.016 10.512C113.016 10.848 112.992 11.208 112.944 11.592C112.912 11.976 112.856 12.376 112.776 12.792H105.576C105.624 13.8 105.88 14.56 106.344 15.072C106.824 15.584 107.592 15.84 108.648 15.84C109.304 15.84 109.888 15.744 110.4 15.552C110.928 15.344 111.328 15.136 111.6 14.928L112.632 16.968ZM108.168 8.16C107.352 8.16 106.744 8.408 106.344 8.904C105.96 9.384 105.728 10.032 105.648 10.848H110.112C110.176 9.984 110.04 9.32 109.704 8.856C109.384 8.392 108.872 8.16 108.168 8.16Z" fill="#46C8FF"/>
</svg>
